<svg xmlns="http://www.w3.org/2000/svg" xmlns:xlink="http://www.w3.org/1999/xlink" width="325" height="229" viewBox="0 0 325 229">
    <defs>
        <path id="b" d="M39.415 0H128a2 2 0 0 1 2 2v167a2 2 0 0 1-2 2H2a2 2 0 0 1-2-2V42.617a2 2 0 0 1 .529-1.355L37.944.645A2 2 0 0 1 39.414 0z"/>
        <filter id="a" width="124.6%" height="118.7%" x="-12.3%" y="-8.2%" filterUnits="objectBoundingBox">
            <feOffset dy="2" in="SourceAlpha" result="shadowOffsetOuter1"/>
            <feGaussianBlur in="shadowOffsetOuter1" result="shadowBlurOuter1" stdDeviation="5"/>
            <feColorMatrix in="shadowBlurOuter1" values="0 0 0 0 0 0 0 0 0 0 0 0 0 0 0 0 0 0 0.1 0"/>
        </filter>
    </defs>
    <g fill="none" fill-rule="evenodd">
        <path fill="#F5F5F9" d="M98.44 10.194l.388.005c12.697.375 16.03 19.057 20.946 33.119l.267.738c9.02 24.16 39.204 28.036 60.82 32.763l1.128.253c37.337 8.56 83.448 38.435 79.145 82.753l-.067.647c-2.044 18.964-12.898 37.013-27.115 49.134l-1.202 1.005c-39.848 32.684-98.015 17.58-134.93-12.431l-1.141-.94c-37.502-31.221-57.366-84.315-42.98-132.476l.18-.6c5.286-17.426 15.146-38.478 30.59-48.668 5.647-3.725 10.21-5.302 13.971-5.302zM278.56 158.21l.219.004c3.94.147 7.13 4.232 6.452 8.095l-.045.226c-.693 3.229-3.995 5.71-7.309 5.446l-.225-.023c-3.294-.386-6.083-3.434-6.123-6.746l.002-.226c.09-3.46 3.189-6.556 6.674-6.765.119-.008.237-.011.354-.011zM149.215 23.065l.367.008c2.09.093 4.286.954 5.873 1.89l1.073.646c6.4 3.921 12.219 8.681 18.94 12.087l.73.363a59.803 59.803 0 0 0 17.82 5.474l.882.115c6.174.738 12.327.016 18.545-.176l.794-.024c16.923-.498 33.377-.257 48.834 7.751l.472.248c12.884 6.834 22.531 18.484 24.869 33.402l.047.308c1.533 10.234.452 26.76-12.114 28.767l-.366.053c-8.758 1.14-15.515-7.349-21.275-14.448l-.478-.588-.546-.665c-10.793-13.023-24.937-23.12-40.616-28.977l-1.59-.579c-10.098-3.578-20.68-5.574-30.904-8.782l-.592-.189c-11.864-3.82-24.932-10.94-32.236-21.459l-.12-.174c-2.265-3.297-5.802-9.41-2.685-13.209 1.101-1.341 2.642-1.842 4.276-1.842zM215.1 1l.374.003c6.61.118 13.285 3.312 16.445 9.267l.128.247c3.415 6.687 2.313 15.012-6.792 19.156l-.36.158c-11.948 5.1-31.324-3.172-26.034-18.268C201.37 4.399 208.16.999 215.1 1zm-81.83 8.274l.22.004c3.94.149 7.13 4.232 6.454 8.096l-.045.226c-.695 3.228-3.996 5.71-7.307 5.445l-.23-.023c-3.293-.39-6.079-3.435-6.12-6.746l.001-.226c.09-3.458 3.189-6.556 6.674-6.765a5.91 5.91 0 0 1 .353-.01z"/>
        <path fill="#FFAD09" d="M269.236 208.967a3.867 3.867 0 0 1-1.055 5.374 3.883 3.883 0 0 1-5.383-1.053 3.867 3.867 0 0 1 1.055-5.373 3.883 3.883 0 0 1 5.383 1.052zm-45.825-8.859a3.666 3.666 0 0 1-1 5.093 3.68 3.68 0 0 1-5.1-.998 3.664 3.664 0 0 1 .998-5.092 3.68 3.68 0 0 1 5.102.997zm73.529-10.091a3.665 3.665 0 0 1-1 5.092 3.68 3.68 0 0 1-5.101-.997 3.665 3.665 0 0 1 .999-5.093 3.68 3.68 0 0 1 5.102.998zm-45.956-8.257a3.665 3.665 0 0 1-1 5.092 3.68 3.68 0 0 1-5.1-.997 3.665 3.665 0 0 1 .998-5.093 3.68 3.68 0 0 1 5.102.998zm-46.875-9.174a3.665 3.665 0 0 1-.999 5.092 3.68 3.68 0 0 1-5.102-.998 3.665 3.665 0 0 1 1-5.092 3.68 3.68 0 0 1 5.101.998zm120.23-.608a3.868 3.868 0 0 1-1.054 5.374 3.883 3.883 0 0 1-5.383-1.053 3.866 3.866 0 0 1 1.054-5.373 3.883 3.883 0 0 1 5.383 1.052zm-45.782-9.484a3.665 3.665 0 0 1-.999 5.092 3.68 3.68 0 0 1-5.102-.997 3.665 3.665 0 0 1 1-5.093 3.68 3.68 0 0 1 5.101.998zm-46.874-8.257a3.665 3.665 0 0 1-1 5.092 3.68 3.68 0 0 1-5.101-.997 3.665 3.665 0 0 1 1-5.092 3.68 3.68 0 0 1 5.1.997zm-45.585-9.796a3.867 3.867 0 0 1-1.054 5.373 3.882 3.882 0 0 1-5.383-1.052 3.867 3.867 0 0 1 1.054-5.374 3.884 3.884 0 0 1 5.383 1.053zm120.033-.296a3.665 3.665 0 0 1-1 5.092 3.679 3.679 0 0 1-5.1-.997 3.665 3.665 0 0 1 .999-5.093 3.68 3.68 0 0 1 5.1.998zm-46.875-9.174a3.665 3.665 0 0 1-1 5.092 3.679 3.679 0 0 1-5.1-.998 3.664 3.664 0 0 1 .998-5.092 3.68 3.68 0 0 1 5.102.998zm-45.956-8.257a3.665 3.665 0 0 1-.999 5.092 3.68 3.68 0 0 1-5.101-.997 3.664 3.664 0 0 1 .999-5.092 3.68 3.68 0 0 1 5.101.997zm73.53-10.092a3.665 3.665 0 0 1-1 5.092 3.68 3.68 0 0 1-5.101-.997 3.664 3.664 0 0 1 .999-5.092 3.68 3.68 0 0 1 5.101.997z"/>
        <path fill-rule="nonzero" stroke="#979797" stroke-dasharray="3,16" stroke-linecap="round" stroke-width="4" d="M110.487 65H185a2 2 0 0 1 2 2v141a2 2 0 0 1-2 2H79a2 2 0 0 1-2-2V101.255a2 2 0 0 1 .528-1.354l31.487-34.254a2 2 0 0 1 1.472-.647z"/>
        <g transform="translate(108 8)">
            <g fill-rule="nonzero">
                <use fill="#000" filter="url(#a)" xlink:href="#b"/>
                <use fill="#FFF" xlink:href="#b"/>
            </g>
            <ellipse cx="65" cy="87.798" fill="#FFAD09" fill-rule="nonzero" rx="37.34" ry="37.234"/>
            <path stroke="#FFF" stroke-linecap="round" stroke-linejoin="round" stroke-width="8" d="M81.135 77.226L58.949 98.37 48.865 88.76"/>
        </g>
        <path fill="#4184F3" fill-rule="nonzero" d="M249.792 31.598l2.658 28.255-15.47-7.193-15.47-7.193z"/>
        <path stroke="#4184F3" stroke-linecap="round" stroke-linejoin="round" stroke-width="11" d="M39.195 186.447l-22.822 23.027L6 199.007"/>
        <path fill="#4184F3" d="M105.132 214.995c-12.03 0-24.058.016-36.087-.01-3.636-.007-6.027-1.664-6.668-4.462-.799-3.488 2.16-6.536 6.518-6.55 13.222-.039 26.444-.022 39.666-.022 10.637-.001 21.275.003 31.912.01 4.64.003 7.452 2.044 7.526 5.449.073 3.395-2.808 5.583-7.377 5.584-11.83.004-23.66.002-35.49.001M91.847 191.048c-7.783 0-15.566.014-23.35-.006-3.806-.01-6.245-2.18-6.25-5.487-.006-3.342 2.4-5.542 6.19-5.545 15.566-.016 31.132-.011 46.698.004 3.769.003 6.194 2.258 6.123 5.61-.068 3.235-2.455 5.398-6.062 5.408-7.784.02-15.567.006-23.349.006v.01z"/>
    </g>
</svg>
